# xmcd CD database file
# Generated: Wed Jan 2 09:15:03 2002 by KSCD
# 
# Track frame offsets:
#       150
#       13221
#       25930
#       36561
#       55278
#       90585
#       104560
#       123628
#       136812
#       150029
#       170542
#       191780
#       206825
#       227287
#       247344
#       264026
#       286252
#       299276
#       316572
#
# Disc length: 4325 seconds
#
# Revision: 2
# Processed by: cddbd v1.4PL0 Copyright (c) Steve Scherf et al.
# Submitted via: Kscd 1.3.0
#
DISCID=0a10e313
DTITLE=Jason and the Scorchers - Wildfires and Misfires
DYEAR=1900
DGENRE=
TTITLE0=Absolutely Sweet Marie
TTITLE1=Shop It Around
TTITLE2=Lost Highway
TTITLE3=Long Black Veil
TTITLE4=Tear It Up (with Link Wray)
TTITLE5=If Money Talks
TTITLE6=Polk Salad Annie
TTITLE7=Don't Stop Doin'
TTITLE8=Comin' 'Round
TTITLE9=Fallen Angel
TTITLE10=Too Much Too Young
TTITLE11=Break Open The Sky
TTITLE12=The Slow Train Never Ends (with Blanche Hodges)
TTITLE13=Window Town
TTITLE14=Buried Me Like A Bone
TTITLE15=Ruby Don't Take Your Love To Town (with Rick Richards)
TTITLE16=Jimmie Rodgers' Last Blue Yodel
TTITLE17=Cappuccino Rosie
TTITLE18=Gospel Plough
EXTD=
EXTT0=
EXTT1=
EXTT2=
EXTT3=
EXTT4=
EXTT5=
EXTT6=
EXTT7=
EXTT8=
EXTT9=
EXTT10=
EXTT11=
EXTT12=
EXTT13=
EXTT14=
EXTT15=
EXTT16=
EXTT17=
EXTT18=
PLAYORDER=
